<svg xmlns="http://www.w3.org/2000/svg" xmlns:xlink="http://www.w3.org/1999/xlink" viewBox="0 0 121.08 112.71"><defs><style>.cls-1,.cls-5{fill:none;}.cls-2{clip-path:url(#clip-path);}.cls-3{fill:#808282;}.cls-4{fill:#fff;}.cls-5{stroke:#fff;stroke-width:0.6px;}</style><clipPath id="clip-path" transform="translate(0 0)"><rect class="cls-1" width="121.03" height="112.71"/></clipPath></defs><title>Asset 11</title><g id="Layer_2" data-name="Layer 2"><g id="Layer_1-2" data-name="Layer 1"><g class="cls-2"><path class="cls-3" d="M60.16,33.29c.23,0,1.32-.46.76-.46-.23,0-1.32.46-.76.46" transform="translate(0 0)"/><path d="M120.93,17A16.81,16.81,0,0,1,104.12.2c0-.07,0-.13,0-.2H17.71c0,.07,0,.13,0,.2A16.81,16.81,0,0,1,.9,17L0,17V95.64l.9,0a16.81,16.81,0,0,1,16.81,16.81c0,.09,0,.19,0,.28h86.42c0-.09,0-.19,0-.28a16.81,16.81,0,0,1,16.81-16.81h.15V17h-.15" transform="translate(0 0)"/></g><path class="cls-4" d="M31.72,90.25l-.6,0-.72-.06q-1.69-.09-1.7.19l0,.16s0,.11.06.22.08.31.15.6a10.53,10.53,0,0,1,.19,1.09,6.58,6.58,0,0,1,0,.87,2.18,2.18,0,0,1-.34,1.06q-.07-.78-.19-1.47t-.26-1.29a4.79,4.79,0,0,1-.2-.7,2.58,2.58,0,0,1-.05-.45q.22-1.19.57-1.39a2.43,2.43,0,0,1,.92-.12h1l.14,0-.95-1.21-1.21.63v-.18a4.23,4.23,0,0,1,.69-1,1.39,1.39,0,0,1,.93-.5.85.85,0,0,1,.69.43q.26.43.54.92.15.34.26.56a.83.83,0,0,0,.48.32h.38v1.38H32l-.22-.13-.06.14Zm4.82,0H32.31V88.86h2.85q.1,0,.1-.16a1.94,1.94,0,0,0-.25-.58,2.17,2.17,0,0,0-.45-.63l.77-1.12A3.22,3.22,0,0,1,36,87.64a5,5,0,0,1,.24,1.21h.34Zm-2.11,1.54L35,91.1l.84.71-.61.72-.8-.66-.55.66-.82-.7.61-.72Zm7.83-2.83a2.36,2.36,0,0,1-.07.44,5.06,5.06,0,0,1-.25.76q-.18.46-.38.46a8.16,8.16,0,0,1-1.06-.4l-1.06-.41a4.9,4.9,0,0,1-2,.44h-1.2V88.86h1.61v-.27a2.29,2.29,0,0,1,.48-1.25,2.92,2.92,0,0,1,.92-.76l-.47-.52.31-.5q.29-.52.42-.52.55,0,1.63,1.19A3.91,3.91,0,0,1,42.26,88.94Zm-2.52-.25A1.33,1.33,0,0,0,40,88a1.75,1.75,0,0,0-.08-.69.23.23,0,0,0-.2-.15,1.18,1.18,0,0,0-.89.41,1.25,1.25,0,0,0-.44.86q0,.15.59.23a1.89,1.89,0,0,0,.79,0Zm1.84.71a.36.36,0,0,0,0-.15,2.75,2.75,0,0,0-.44-1.48q-.51-.66-.72-.66l0,0s0,.12,0,.25,0,.23,0,.28A2.07,2.07,0,0,1,40,88.83s.19.11.57.21a7.55,7.55,0,0,1,1,.36Zm3-.1-.91,1.36V85l.91-1.23Zm4.69.93a3.66,3.66,0,0,1-.63,1.51,2.35,2.35,0,0,1-1.74,1.2,1.83,1.83,0,0,1-1.28-.64,3.5,3.5,0,0,1-.86-1.3l.23.14a6.32,6.32,0,0,0,.67.3A2.23,2.23,0,0,0,48,91q.63-.57.63-.81,0-.53-1.05-1.45l.59-1.25.48.48a2,2,0,0,1,.36.5,1.75,1.75,0,0,1,.14.37h.38v1.38ZM53,87.66a6.15,6.15,0,0,1,.28,1.55q0,1-.28,1H49.31V88.86h2.82q.1,0,.1-.16a2.31,2.31,0,0,0-.3-.65q-.3-.53-.38-.53l.74-1.15A3,3,0,0,1,53,87.66ZM50.87,91.1l1.27.51-.46,1-1.24-.52Zm4.72.07a.89.89,0,0,0-.44-.06H55a.36.36,0,0,0-.19.13.34.34,0,0,0-.11.2.06.06,0,0,0,0,0q.1.15.53.15l.25,0,.55-.13-.09.42a3.43,3.43,0,0,0-.53.13,3.81,3.81,0,0,0-.62.31l-.29.18s-.06,0-.06,0a.73.73,0,0,1,.15-.3,1.4,1.4,0,0,1,.16-.2l-.22-.06q-.2-.07-.21-.13a1.25,1.25,0,0,1,1-1.12.93.93,0,0,1,.25,0l.22.05Zm-.1-1.87-.91,1.36V85l.91-1.23Z" transform="translate(0 0)"/><path class="cls-4" d="M68.77,88.87q0,1-.17,2.81H65.17q-.09-1.3-.09-2.18a1.86,1.86,0,0,1,.64-1.56q-.81,0-.81-.77a1.63,1.63,0,0,1,.08-.52q.12-.33.35-.33s0,.07.08.22.18.22.41.22h1.85a.93.93,0,0,1,.71.24,1.34,1.34,0,0,1,.28.7A6.64,6.64,0,0,1,68.77,88.87Zm-.48,1V88.63a.88.88,0,0,0-.11-.5.54.54,0,0,0-.48-.18H66.06l-.19.19a1.78,1.78,0,0,0-.3,1.09q0,1,.23,1.17a.61.61,0,0,0,.37.09h1.5a.72.72,0,0,0,.5-.12A.77.77,0,0,0,68.29,89.87Zm6.07-2.27a1.06,1.06,0,0,1-.21.51,1.06,1.06,0,0,0-.21.52,3.88,3.88,0,0,0,0,.47l.2,1.42a3.14,3.14,0,0,1,0,.38.88.88,0,0,1-.25.58.89.89,0,0,1-.53.33q0-.6,0-1.07,0-.29,0-.85t0-.84a1.51,1.51,0,0,1,.12-.59l.14-.27a.58.58,0,0,0,.07-.25H71.42q-.9,0-.9-.77a1.63,1.63,0,0,1,.08-.52q.12-.33.35-.33s0,.07.08.22.18.22.41.22h2.38q.56,0,.56.66ZM71.46,89a2,2,0,0,0-.12.53q0,.24,0,.73t0,.74a.72.72,0,0,1-.24.5.9.9,0,0,1-.49.29v-2a.76.76,0,0,1,.25-.55.78.78,0,0,1,.55-.25Zm7.85-.38a18.33,18.33,0,0,0,.14,2.4l-.77.77q.09-1.1.09-1.47v-.63a5.72,5.72,0,0,0-.11-1.61q-.11-.14-.48-.14H76.71a.68.68,0,0,1-.78-.77q0-.84.41-.85s0,0,.06.1l0,.12q.07.22.42.22h1.86a.48.48,0,0,1,.42.24.94.94,0,0,1,.15.52q0,.18,0,.55t0,.56Zm5.45,1.85-.24,1.19H80.94l.27-1.19h2.13q.64,0,.64-1.07v-.36q0-.78-.24-1a2.14,2.14,0,0,0-1.11-.18H82q-.9,0-.9-.77a1.63,1.63,0,0,1,.08-.52q.12-.33.35-.33s0,.07.08.22.18.22.41.22h1.24a1.21,1.21,0,0,1,1.08.41,2.26,2.26,0,0,1,.22,1.17,5.72,5.72,0,0,1-.31,2.14ZM90,90.4a1,1,0,0,1,.24.59h0a.83.83,0,0,1-.37.69l-.11,0-.5-.7q-.57-.73-1.68-2.05h0a.21.21,0,0,0-.15.07.77.77,0,0,0-.25.56.68.68,0,0,0,.09.29l.34.57a1.77,1.77,0,0,1,.26.58,1.34,1.34,0,0,1-.08.38q-.1.29-.2.29h-1.1l-.11-.25q.39-.12.39-.24l0-.08q-.1-.34-.21-.81a1.22,1.22,0,0,1,0-.3,1.93,1.93,0,0,1,.86-1.35l-.71-.84a.74.74,0,0,1,0-1.1q.16-.23.24-.23a2.68,2.68,0,0,1,.3.38,5.05,5.05,0,0,0,.68.91l.93,1.12a4.85,4.85,0,0,1,.33-.55l.33-.49a1.41,1.41,0,0,1-.53-.13.61.61,0,0,1-.24-.57,1.38,1.38,0,0,1,.09-.47q.11-.3.29-.3h0s.06.06.1.18a.32.32,0,0,0,.29.21,1.19,1.19,0,0,1,.35,0q.47,0,.47.65a3.7,3.7,0,0,1,0,.49h-.36q-.32,0-.52.47a2.47,2.47,0,0,0-.19.8h0a.8.8,0,0,0,.16.26l.73.91Z" transform="translate(0 0)"/><path class="cls-4" d="M29.16,30.82H26.92q-1,0-1,1.14c0,.18.09.27.29.27l.25,0,.25,0q.62,0,.62,1a1.3,1.3,0,0,1-.29.87.94.94,0,0,1-.76.34,9.74,9.74,0,0,1-1-.12,7.33,7.33,0,0,0-1-.05,8.68,8.68,0,0,0-1.08.05c-.59.08-.95.12-1.06.12a1.17,1.17,0,0,1-.85-.32,1.12,1.12,0,0,1-.33-.84Q21,32,21.88,32l.32,0,.32,0a.6.6,0,0,0,.52-.35c0-.07.11-.27.23-.62l2.32-6.6a2.58,2.58,0,0,1,.91-1.41,4.43,4.43,0,0,1,1.63-.19,5.3,5.3,0,0,1,1.78.18,1.49,1.49,0,0,1,.61,1l2.15,7.16q.25.86.59.86l.35-.05h.18q.94,0,.94,1.11a1.2,1.2,0,0,1-.34.89,1.18,1.18,0,0,1-.87.34,5,5,0,0,1-.62-.05,4.61,4.61,0,0,0-.62-.08c-.25,0-.57,0-1,0a6.9,6.9,0,0,0-.86,0,9.9,9.9,0,0,1-1.08.13.94.94,0,0,1-.75-.35,1.28,1.28,0,0,1-.29-.87q0-1,.64-1l.25,0,.25,0q.32,0,.32-.35a1.42,1.42,0,0,0-.19-.76A.54.54,0,0,0,29.16,30.82Zm-.25-2.57L28.1,24.8l-1,3.58a.4.4,0,0,0,0,.12c0,.13.14.2.42.2h1c.29,0,.44-.08.44-.23C28.94,28.48,28.93,28.4,28.91,28.25Z" transform="translate(0 0)"/><path class="cls-4" d="M38.55,23.58v3.18A3.28,3.28,0,0,1,41,25.61a2.85,2.85,0,0,1,2.38,1.2A5.08,5.08,0,0,1,44.26,30a5.16,5.16,0,0,1-1,3.36,3.35,3.35,0,0,1-2.74,1.26,3.18,3.18,0,0,1-2.7-1.34,3.62,3.62,0,0,1,0,.42q0,.77-.92.77a.85.85,0,0,1-1-1V25.79q0-.86-.28-.86a.9.9,0,0,0-.3.07.84.84,0,0,1-.26,0q-.79,0-.79-.92a1.18,1.18,0,0,1,.28-.82,1,1,0,0,1,.75-.31A5.69,5.69,0,0,1,36,23a5.75,5.75,0,0,0,.64.05,6.86,6.86,0,0,0,.89-.05,4.77,4.77,0,0,1,.57-.05C38.39,23,38.55,23.18,38.55,23.58Zm1.55,8.87q1.46,0,1.46-2.35t-1.43-2.35a1.32,1.32,0,0,0-1.13.66,2.94,2.94,0,0,0-.45,1.67Q38.55,32.45,40.1,32.45Z" transform="translate(0 0)"/><path class="cls-4" d="M48.63,26.36v1.43a3.64,3.64,0,0,1,.55-1.26,2.5,2.5,0,0,1,2.07-.92,2.18,2.18,0,0,1,1.55.6,2,2,0,0,1,.63,1.47,1.62,1.62,0,0,1-.4,1.13,1.32,1.32,0,0,1-1,.45,1.14,1.14,0,0,1-.8-.3,1,1,0,0,1-.33-.74,1.58,1.58,0,0,1,.22-.66H51a1.5,1.5,0,0,0-1.51,1.19,7.35,7.35,0,0,0-.3,2.2v.64a1.81,1.81,0,0,0,.1.77.26.26,0,0,0,.23.1,1.53,1.53,0,0,0,.42-.08,1.5,1.5,0,0,1,.4-.09.85.85,0,0,1,.63.27.88.88,0,0,1,.26.64,1.14,1.14,0,0,1-.33.83,1.08,1.08,0,0,1-.8.33,9.28,9.28,0,0,1-.94-.08,9.3,9.3,0,0,0-1.06-.05,11.26,11.26,0,0,0-1.13.05q-.81.08-1,.08-1,0-1-1.13,0-.94.81-.94a.93.93,0,0,1,.3.06.87.87,0,0,0,.25.06q.29,0,.29-.94V28.75q0-1-.29-1a1.12,1.12,0,0,0-.26.06,1.1,1.1,0,0,1-.29.06Q45,27.91,45,27a1.23,1.23,0,0,1,.27-.82.86.86,0,0,1,.69-.32,2.33,2.33,0,0,1,.47.07A2.63,2.63,0,0,0,47,26a3.77,3.77,0,0,0,.59-.07,3.66,3.66,0,0,1,.57-.07A.46.46,0,0,1,48.63,26.36Z" transform="translate(0 0)"/><path class="cls-4" d="M61.29,34.58a1.81,1.81,0,0,1-1.85-1.11,3.93,3.93,0,0,1-2.79,1.11,3.08,3.08,0,0,1-2.12-.7A2.35,2.35,0,0,1,53.74,32a2.17,2.17,0,0,1,1.53-2.28,10.84,10.84,0,0,1,1.51-.37,5.16,5.16,0,0,0,1.62-.46.87.87,0,0,0,.43-.8.79.79,0,0,0-.33-.65,1.27,1.27,0,0,0-.81-.26c-.37,0-.56.12-.56.35v.3a1,1,0,0,1-.39.79,1.5,1.5,0,0,1-1,.32,1.56,1.56,0,0,1-1.1-.4,1.32,1.32,0,0,1-.43-1,1.58,1.58,0,0,1,1-1.43,5.57,5.57,0,0,1,2.64-.52,5.22,5.22,0,0,1,2.7.55,2.45,2.45,0,0,1,1,2.25v3.48q0,.54.27.54h.37a.9.9,0,0,1,.66.27.87.87,0,0,1,.27.64,1.05,1.05,0,0,1-.5.89A2.16,2.16,0,0,1,61.29,34.58ZM58.83,31v-.37a15.08,15.08,0,0,1-1.47.42c-.61.16-.92.4-.92.72q0,.77.9.77Q58.83,32.53,58.83,31Z" transform="translate(0 0)"/><path class="cls-4" d="M67.42,23.58v3.07a5.19,5.19,0,0,1,1.21-.83,3.06,3.06,0,0,1,1.21-.21,2.47,2.47,0,0,1,2.22,1,3.86,3.86,0,0,1,.44,2.09v2.9c0,.56.11.84.34.84a.47.47,0,0,0,.24-.06.53.53,0,0,1,.27-.06q.74,0,.74.87,0,1.2-1,1.2a7.58,7.58,0,0,1-.84-.07,7.61,7.61,0,0,0-.84-.07,6.93,6.93,0,0,0-.8.07,6.93,6.93,0,0,1-.8.07.88.88,0,0,1-.68-.29,1.08,1.08,0,0,1-.26-.76q0-.86.64-.91c.19,0,.31-.06.35-.15a1.1,1.1,0,0,0,.07-.45V29.24q0-1.39-1.06-1.39-1.45,0-1.45,2v2a.82.82,0,0,0,.08.45.72.72,0,0,0,.41.14c.35.06.52.34.52.84q0,1.11-.92,1.11a6.72,6.72,0,0,1-.72-.07,7.55,7.55,0,0,0-1-.07,6.24,6.24,0,0,0-.76.05q-.67.08-.86.08a1,1,0,0,1-.74-.31,1.13,1.13,0,0,1-.29-.8q0-1,.82-1a.94.94,0,0,1,.28.06,1,1,0,0,0,.28.06q.29,0,.29-.94v-5.6q0-.94-.29-.94a.93.93,0,0,0-.3.07A.89.89,0,0,1,64,25q-.81,0-.81-.92a1.16,1.16,0,0,1,.29-.82,1,1,0,0,1,.74-.31,5.66,5.66,0,0,1,.64.05,5.74,5.74,0,0,0,.64.05,6.81,6.81,0,0,0,.9-.05A4.63,4.63,0,0,1,67,23Q67.42,23,67.42,23.58Z" transform="translate(0 0)"/><path class="cls-4" d="M82.09,34.58a1.81,1.81,0,0,1-1.85-1.11,3.93,3.93,0,0,1-2.79,1.11,3.08,3.08,0,0,1-2.12-.7A2.35,2.35,0,0,1,74.55,32a2.17,2.17,0,0,1,1.53-2.28,10.82,10.82,0,0,1,1.51-.37,5.15,5.15,0,0,0,1.62-.46.87.87,0,0,0,.43-.8.8.8,0,0,0-.33-.65,1.27,1.27,0,0,0-.82-.26q-.55,0-.55.35v.3a1,1,0,0,1-.39.79,1.5,1.5,0,0,1-1,.32,1.56,1.56,0,0,1-1.1-.4,1.32,1.32,0,0,1-.43-1,1.58,1.58,0,0,1,1-1.43,5.56,5.56,0,0,1,2.64-.52,5.22,5.22,0,0,1,2.71.55,2.46,2.46,0,0,1,1,2.25v3.48q0,.54.27.54h.37a.9.9,0,0,1,.66.27.87.87,0,0,1,.27.64,1.05,1.05,0,0,1-.5.89A2.16,2.16,0,0,1,82.09,34.58ZM79.64,31v-.37a15,15,0,0,1-1.47.42c-.61.16-.92.4-.92.72q0,.77.9.77Q79.64,32.53,79.64,31Z" transform="translate(0 0)"/><path class="cls-4" d="M87.82,26.35v.77a3.63,3.63,0,0,1,2.81-1.51,2.49,2.49,0,0,1,2.13,1.26,6.43,6.43,0,0,1,1.44-1,3.35,3.35,0,0,1,1.39-.27A2.79,2.79,0,0,1,98,26.67,3.94,3.94,0,0,1,98.51,29v2.57q0,.86.32.86a.73.73,0,0,0,.27-.07.55.55,0,0,1,.25,0q.74,0,.74.89a1.3,1.3,0,0,1-.27.85.87.87,0,0,1-.71.32l-.49-.05-.37-.05a5.71,5.71,0,0,0-.71,0,7.88,7.88,0,0,0-1,.07,6.29,6.29,0,0,1-.71.07.83.83,0,0,1-.66-.31,1.17,1.17,0,0,1-.26-.78q0-.77.62-.89c.21,0,.34-.1.38-.19a2.64,2.64,0,0,0,.06-.74V29.73a3.27,3.27,0,0,0-.23-1.47.91.91,0,0,0-.87-.39q-1.43,0-1.43,2v1.56a3,3,0,0,0,.05.72.33.33,0,0,0,.27.2q.52.12.52.84,0,1.14-.94,1.14a3.84,3.84,0,0,1-.52-.05,6.12,6.12,0,0,0-.74-.08,3.89,3.89,0,0,0-.6.07,3.88,3.88,0,0,1-.6.07q-.82,0-.82-1.06,0-.75.52-.89a.39.39,0,0,0,.3-.4c0-.3,0-.49,0-.55v-1.9a2.76,2.76,0,0,0-.23-1.33.88.88,0,0,0-.82-.37q-1.48,0-1.48,2v2a.57.57,0,0,0,.07.34.65.65,0,0,0,.34.13.77.77,0,0,1,.66.87q0,1.09-.92,1.09a7.81,7.81,0,0,1-.85-.07,7.83,7.83,0,0,0-.85-.07,6.47,6.47,0,0,0-.79.05q-.67.08-.86.08a1,1,0,0,1-.75-.31,1.15,1.15,0,0,1-.28-.8q0-1,.81-1a.93.93,0,0,1,.3.06.88.88,0,0,0,.25.06c.19,0,.29-.31.29-.94V28.75c0-.64-.1-1-.29-1a1.14,1.14,0,0,0-.26.06,1.1,1.1,0,0,1-.29.06q-.81,0-.81-.94a1.18,1.18,0,0,1,.28-.81.92.92,0,0,1,.73-.32,4.72,4.72,0,0,1,.55.08,2.7,2.7,0,0,0,.5.05,3.93,3.93,0,0,0,.6-.07,3.85,3.85,0,0,1,.6-.07Q87.82,25.84,87.82,26.35Z" transform="translate(0 0)"/><path class="cls-4" d="M32.31,41.23h.84v3.54h4.3V41.23h.85v8.45h-.85V45.6h-4.3v4.08h-.84Z" transform="translate(0 0)"/><path class="cls-4" d="M46.05,41a4.38,4.38,0,0,1,3.21,1.28,4.44,4.44,0,0,1-3.14,7.59,4.32,4.32,0,0,1-3.17-1.29,4.23,4.23,0,0,1-1.29-3.11,4.5,4.5,0,0,1,.59-2.26A4.35,4.35,0,0,1,46.05,41Zm0,.82A3.6,3.6,0,0,0,43,43.64a3.65,3.65,0,0,0-.47,1.85,3.55,3.55,0,0,0,3.56,3.58,3.61,3.61,0,0,0,1.82-.48,3.41,3.41,0,0,0,1.31-1.3,3.66,3.66,0,0,0,.47-1.84,3.57,3.57,0,0,0-.47-1.82,3.51,3.51,0,0,0-1.32-1.3A3.58,3.58,0,0,0,46.09,41.84Z" transform="translate(0 0)"/><path class="cls-4" d="M53.05,48.1l.72-.43q.76,1.4,1.75,1.4a1.68,1.68,0,0,0,.8-.2,1.4,1.4,0,0,0,.57-.53,1.37,1.37,0,0,0,.2-.71,1.43,1.43,0,0,0-.29-.83,6.85,6.85,0,0,0-1.45-1.36A7.41,7.41,0,0,1,54,44.29,2.11,2.11,0,0,1,53.59,43a2,2,0,0,1,.26-1,1.89,1.89,0,0,1,.74-.72,2.16,2.16,0,0,1,1-.26,2.22,2.22,0,0,1,1.12.3,3.83,3.83,0,0,1,1.1,1.09l-.69.52a3.29,3.29,0,0,0-.81-.83,1.4,1.4,0,0,0-.73-.2,1.16,1.16,0,0,0-.84.31,1,1,0,0,0-.32.76,1.3,1.3,0,0,0,.12.53,2,2,0,0,0,.42.56c.11.11.47.39,1.09.84a6.17,6.17,0,0,1,1.51,1.44A2.33,2.33,0,0,1,58,47.62a2.15,2.15,0,0,1-.7,1.6,2.35,2.35,0,0,1-1.7.68,2.49,2.49,0,0,1-1.39-.41A3.75,3.75,0,0,1,53.05,48.1Z" transform="translate(0 0)"/><path class="cls-4" d="M60.61,42.06v-.83h4.63v.83H63.36v7.62H62.5V42.06Z" transform="translate(0 0)"/><path class="cls-4" d="M68.15,41.23H73v.83H69V44.7h4v.83H69v3.32h4v.83H68.15Z" transform="translate(0 0)"/><path class="cls-4" d="M76.12,41.23H77v7.63h3.25v.82h-4.1Z" transform="translate(0 0)"/><path class="cls-4" d="M82.36,48.1l.72-.43q.76,1.4,1.75,1.4a1.67,1.67,0,0,0,.8-.2,1.4,1.4,0,0,0,.57-.53,1.37,1.37,0,0,0,.2-.71,1.43,1.43,0,0,0-.29-.83,6.83,6.83,0,0,0-1.45-1.36,7.43,7.43,0,0,1-1.32-1.15A2.11,2.11,0,0,1,82.9,43a2,2,0,0,1,.26-1,1.89,1.89,0,0,1,.74-.72,2.16,2.16,0,0,1,1-.26,2.22,2.22,0,0,1,1.12.3,3.83,3.83,0,0,1,1.1,1.09l-.69.52a3.29,3.29,0,0,0-.81-.83,1.4,1.4,0,0,0-.73-.2,1.16,1.16,0,0,0-.84.31,1,1,0,0,0-.32.76,1.3,1.3,0,0,0,.12.53,2,2,0,0,0,.42.56q.17.16,1.09.84a6.16,6.16,0,0,1,1.5,1.44,2.33,2.33,0,0,1,.41,1.27,2.15,2.15,0,0,1-.7,1.6,2.34,2.34,0,0,1-1.7.68,2.49,2.49,0,0,1-1.4-.41A3.75,3.75,0,0,1,82.36,48.1Z" transform="translate(0 0)"/><polygon class="cls-5" points="60.58 73.76 58.44 71.68 58.41 68.53 60.62 66.43 62.8 68.4 62.82 71.81 60.58 73.76"/><polygon class="cls-5" points="60.6 71.93 59.53 70.89 59.51 69.32 60.62 68.27 61.7 69.25 61.71 70.95 60.6 71.93"/><polygon class="cls-5" points="60.58 66.38 58.44 64.3 58.41 61.16 60.62 59.05 62.8 61.02 62.82 64.43 60.58 66.38"/><polygon class="cls-5" points="60.6 64.55 59.53 63.51 59.51 61.94 60.62 60.89 61.7 61.87 61.71 63.58 60.6 64.55"/><polygon class="cls-5" points="68.02 66.44 65.93 68.58 62.79 68.62 60.69 66.4 62.88 64.22 66.06 64.2 68.02 66.44"/><polygon class="cls-5" points="66.18 66.42 65.14 67.49 63.57 67.51 62.52 66.41 63.5 65.31 65.21 65.31 66.18 66.42"/><polygon class="cls-5" points="60.47 66.41 58.31 68.49 55.16 68.53 53.06 66.31 55.03 64.14 58.42 64.27 60.47 66.41"/><polygon class="cls-5" points="58.56 66.34 57.52 67.41 55.95 67.43 54.9 66.32 55.88 65.23 57.58 65.22 58.56 66.34"/></g></g></svg>