<svg xmlns="http://www.w3.org/2000/svg" viewBox="0 0 117.28 24.94"><defs><style>.cls-1{fill:#fff;}</style></defs><title>Asset 17</title><g id="Layer_2" data-name="Layer 2"><g id="Layer_1-2" data-name="Layer 1"><path d="M24.29,3.42A3.38,3.38,0,0,1,20.91,0V0H3.56V0A3.38,3.38,0,0,1,.18,3.42H0v15.8H.18a3.38,3.38,0,0,1,3.38,3.38s0,0,0,.06H20.91s0,0,0-.06a3.38,3.38,0,0,1,3.38-3.38h0V3.42h0"/><rect x="30.41" width="1.5" height="22.64"/><path d="M48,8.16H45.81q-.94,0-.94,1.12,0,.26.28.26l.25,0,.25,0q.61,0,.61,1a1.28,1.28,0,0,1-.28.85.92.92,0,0,1-.74.33,9.5,9.5,0,0,1-1-.11,7.3,7.3,0,0,0-1,0,8.65,8.65,0,0,0-1.05,0q-.87.11-1,.11a1.14,1.14,0,0,1-.83-.31,1.09,1.09,0,0,1-.32-.82q0-1.15.87-1.15l.31,0,.31,0A.58.58,0,0,0,42,9.06q0-.1.23-.61L44.51,2A2.53,2.53,0,0,1,45.4.63,4.36,4.36,0,0,1,47,.45a5.22,5.22,0,0,1,1.74.17,1.46,1.46,0,0,1,.59,1l2.1,7q.25.84.57.84l.34,0h.18q.92,0,.92,1.08a1.18,1.18,0,0,1-.33.87,1.15,1.15,0,0,1-.85.33,5,5,0,0,1-.61,0,4.43,4.43,0,0,0-.61-.08q-.36,0-.94,0a6.73,6.73,0,0,0-.84,0,9.72,9.72,0,0,1-1.05.13.92.92,0,0,1-.73-.34,1.26,1.26,0,0,1-.29-.85q0-1,.62-1l.25,0,.25,0c.21,0,.31-.12.31-.34a1.4,1.4,0,0,0-.18-.74A.53.53,0,0,0,48,8.16Zm-.25-2.51L47,2.28l-1,3.5a.37.37,0,0,0,0,.11q0,.2.41.2h1q.43,0,.43-.23S47.77,5.8,47.75,5.65Z"/><path d="M57.12,1.09v3.1A3.23,3.23,0,0,1,59.5,3.07a2.81,2.81,0,0,1,2.34,1.17,4.94,4.94,0,0,1,.89,3.08,5,5,0,0,1-1,3.28,3.27,3.27,0,0,1-2.68,1.23,3.11,3.11,0,0,1-2.64-1.31,3.64,3.64,0,0,1,0,.41q0,.76-.9.76a.83.83,0,0,1-.94-1V3.25q0-.84-.28-.84a.92.92,0,0,0-.29.07.86.86,0,0,1-.26,0q-.79,0-.79-.9a1.15,1.15,0,0,1,.27-.8A.93.93,0,0,1,54,.51a5.68,5.68,0,0,1,.62,0,5.59,5.59,0,0,0,.62,0,6.74,6.74,0,0,0,.87,0,4.78,4.78,0,0,1,.56,0Q57.12.51,57.12,1.09Zm1.54,8.67q1.43,0,1.43-2.3t-1.4-2.3a1.3,1.3,0,0,0-1.11.65,2.87,2.87,0,0,0-.43,1.63Q57.15,9.75,58.66,9.75Z"/><path d="M67,3.81v1.4A3.52,3.52,0,0,1,67.56,4a2.44,2.44,0,0,1,2-.9,2.12,2.12,0,0,1,1.52.58,1.9,1.9,0,0,1,.62,1.44,1.59,1.59,0,0,1-.39,1.11,1.29,1.29,0,0,1-1,.44,1.11,1.11,0,0,1-.78-.3.94.94,0,0,1-.32-.72A1.54,1.54,0,0,1,69.43,5h-.1a1.47,1.47,0,0,0-1.48,1.17,7.14,7.14,0,0,0-.3,2.15v.62a1.79,1.79,0,0,0,.1.76.26.26,0,0,0,.23.1,1.81,1.81,0,0,0,.41-.07,1.81,1.81,0,0,1,.39-.07.87.87,0,0,1,.87.87,1.08,1.08,0,0,1-.32.8,1.06,1.06,0,0,1-.78.32,9.23,9.23,0,0,1-.92-.08,9,9,0,0,0-1,0,10.86,10.86,0,0,0-1.1,0c-.53.05-.85.08-1,.08q-1,0-1-1.1,0-.92.79-.92a.92.92,0,0,1,.3.06.82.82,0,0,0,.25.06q.28,0,.28-.92V6.14q0-.94-.28-.94a1.09,1.09,0,0,0-.25.06,1.09,1.09,0,0,1-.29.06q-.79,0-.79-.9a1.21,1.21,0,0,1,.26-.8.84.84,0,0,1,.67-.31,2.3,2.3,0,0,1,.46.07,2.57,2.57,0,0,0,.56.07A3.64,3.64,0,0,0,66,3.37a3.66,3.66,0,0,1,.56-.07A.45.45,0,0,1,67,3.81Z"/><path d="M79.38,11.84a1.77,1.77,0,0,1-1.81-1.08,3.84,3.84,0,0,1-2.72,1.08,3,3,0,0,1-2.07-.68A2.3,2.3,0,0,1,72,9.34,2.12,2.12,0,0,1,73.5,7.11,10.5,10.5,0,0,1,75,6.75a5,5,0,0,0,1.58-.45A.85.85,0,0,0,77,5.52a.78.78,0,0,0-.32-.63,1.24,1.24,0,0,0-.8-.25q-.54,0-.54.34a1.66,1.66,0,0,0,0,.23v.07A1,1,0,0,1,75,6a1.48,1.48,0,0,1-1,.31A1.54,1.54,0,0,1,72.91,6a1.28,1.28,0,0,1-.43-1,1.55,1.55,0,0,1,.94-1.4A5.44,5.44,0,0,1,76,3.07a5.1,5.1,0,0,1,2.64.54,2.4,2.4,0,0,1,.94,2.2v3.4q0,.53.26.53l.25,0,.12,0a.9.9,0,0,1,.9.9,1,1,0,0,1-.48.89A2.09,2.09,0,0,1,79.38,11.84ZM77,8.33V8a14.77,14.77,0,0,1-1.44.41q-.9.23-.9.71,0,.76.89.76A1.31,1.31,0,0,0,77,8.33Z"/><path d="M85.37,1.09v3a5,5,0,0,1,1.18-.81,3,3,0,0,1,1.18-.21A2.42,2.42,0,0,1,89.9,4a3.75,3.75,0,0,1,.43,2V8.88q0,.82.33.82a.72.72,0,0,0,.23,0,.85.85,0,0,1,.26,0q.72,0,.72.84,0,1.15-1,1.15a7.49,7.49,0,0,1-.82-.07,7.48,7.48,0,0,0-.82-.07,6.82,6.82,0,0,0-.78.07,6.82,6.82,0,0,1-.78.07.86.86,0,0,1-.67-.28,1.05,1.05,0,0,1-.25-.74q0-.84.62-.89c.19,0,.3-.06.34-.15a1.07,1.07,0,0,0,.07-.44V6.62q0-1.36-1-1.36-1.41,0-1.41,2V9.15a.8.8,0,0,0,.07.44.71.71,0,0,0,.4.14q.51.08.51.82,0,1.08-.9,1.08a6.6,6.6,0,0,1-.71-.07,7.41,7.41,0,0,0-.94-.07,6,6,0,0,0-.74,0q-.66.08-.84.08a.94.94,0,0,1-.72-.3,1.11,1.11,0,0,1-.28-.78q0-.94.8-.94a.93.93,0,0,1,.27.06.91.91,0,0,0,.27.06q.28,0,.28-.92V3.33q0-.92-.28-.92a.92.92,0,0,0-.29.07.86.86,0,0,1-.26,0q-.79,0-.79-.9a1.13,1.13,0,0,1,.28-.8.94.94,0,0,1,.72-.3,5.68,5.68,0,0,1,.62,0,5.59,5.59,0,0,0,.62,0,6.69,6.69,0,0,0,.88,0,4.62,4.62,0,0,1,.57,0Q85.37.51,85.37,1.09Z"/><path d="M99.7,11.84a1.77,1.77,0,0,1-1.81-1.08,3.84,3.84,0,0,1-2.72,1.08,3,3,0,0,1-2.07-.68,2.3,2.3,0,0,1-.77-1.81,2.12,2.12,0,0,1,1.49-2.23,10.5,10.5,0,0,1,1.48-.36,5,5,0,0,0,1.58-.45.85.85,0,0,0,.42-.78A.78.78,0,0,0,97,4.89a1.24,1.24,0,0,0-.8-.25q-.54,0-.54.34a1.66,1.66,0,0,0,0,.23v.07a1,1,0,0,1-.39.77,1.48,1.48,0,0,1-1,.31A1.54,1.54,0,0,1,93.24,6a1.28,1.28,0,0,1-.43-1,1.55,1.55,0,0,1,.94-1.4,5.44,5.44,0,0,1,2.58-.51A5.1,5.1,0,0,1,99,3.61a2.4,2.4,0,0,1,.94,2.2v3.4q0,.53.26.53l.25,0,.12,0a.9.9,0,0,1,.9.9,1,1,0,0,1-.48.89A2.09,2.09,0,0,1,99.7,11.84ZM97.32,8.33V8a14.77,14.77,0,0,1-1.44.41q-.9.23-.9.71,0,.76.89.76A1.31,1.31,0,0,0,97.32,8.33Z"/><path d="M105.3,3.79v.75A3.55,3.55,0,0,1,108,3.07a2.44,2.44,0,0,1,2.08,1.23,6.25,6.25,0,0,1,1.4-1,3.27,3.27,0,0,1,1.35-.26,2.72,2.72,0,0,1,2.33,1,3.85,3.85,0,0,1,.53,2.27V8.88q0,.84.31.84a1,1,0,0,0,.26,0,.7.7,0,0,1,.25,0q.72,0,.72.85a1.23,1.23,0,0,1-.26.82.86.86,0,0,1-.69.31l-.48,0-.36,0a5.77,5.77,0,0,0-.69,0,7.75,7.75,0,0,0-1,.07,6.17,6.17,0,0,1-.69.07.81.81,0,0,1-.65-.3,1.15,1.15,0,0,1-.25-.76q0-.76.61-.87.31,0,.37-.18a2.54,2.54,0,0,0,.06-.72V7.09A3.19,3.19,0,0,0,113,5.66a.89.89,0,0,0-.85-.39q-1.4,0-1.4,2V8.78a2.94,2.94,0,0,0,0,.71.32.32,0,0,0,.26.2q.51.11.51.82,0,1.12-.92,1.12a3.68,3.68,0,0,1-.51,0,6.08,6.08,0,0,0-.72-.08,3.82,3.82,0,0,0-.58.07,3.83,3.83,0,0,1-.58.07q-.8,0-.8-1,0-.74.51-.87a.38.38,0,0,0,.3-.39c0-.3,0-.48,0-.54V6.93a2.68,2.68,0,0,0-.22-1.3.86.86,0,0,0-.8-.36q-1.45,0-1.45,2v2a.56.56,0,0,0,.07.34.63.63,0,0,0,.33.12.75.75,0,0,1,.64.85q0,1.07-.9,1.07a7.69,7.69,0,0,1-.83-.07,7.73,7.73,0,0,0-.83-.07,6.24,6.24,0,0,0-.77,0q-.66.08-.84.08a.93.93,0,0,1-.73-.3,1.13,1.13,0,0,1-.27-.78q0-.94.79-.94a.92.92,0,0,1,.3.06.82.82,0,0,0,.25.06q.28,0,.28-.92V6.14q0-.94-.28-.94a1.09,1.09,0,0,0-.25.06,1.09,1.09,0,0,1-.29.06q-.79,0-.79-.92a1.16,1.16,0,0,1,.27-.79.9.9,0,0,1,.71-.31l.54.08a2.7,2.7,0,0,0,.49,0,3.8,3.8,0,0,0,.58-.07,3.82,3.82,0,0,1,.58-.07C105.16,3.3,105.3,3.47,105.3,3.79Z"/><path d="M40.11,14.29h1.63a3.86,3.86,0,0,1,1.51.23,1.85,1.85,0,0,1,.83.72,2,2,0,0,1,.31,1.07,1.92,1.92,0,0,1-.27,1,2,2,0,0,1-.79.73,3.06,3.06,0,0,1,1,.51,2.06,2.06,0,0,1,.54.71,2.15,2.15,0,0,1,.19.91,2.22,2.22,0,0,1-.73,1.68,2.72,2.72,0,0,1-1.95.69H40.11Zm.81.81v2.64h.47a3.69,3.69,0,0,0,1.27-.16,1.36,1.36,0,0,0,.64-.5,1.32,1.32,0,0,0,.24-.77,1.08,1.08,0,0,0-.4-.89,2,2,0,0,0-1.26-.32Zm0,3.47v3.16h1a3.67,3.67,0,0,0,1.33-.18,1.5,1.5,0,0,0,.68-.55,1.44,1.44,0,0,0-.1-1.77,1.85,1.85,0,0,0-1-.56,7.22,7.22,0,0,0-1.47-.1Z"/><path d="M52.66,16.44v6.1h-.77v-1a3.37,3.37,0,0,1-1.11.9,3.1,3.1,0,0,1-3.56-.64,3.15,3.15,0,0,1-.92-2.29,3.09,3.09,0,0,1,.93-2.26,3,3,0,0,1,2.23-.94,2.88,2.88,0,0,1,1.36.32,3.09,3.09,0,0,1,1.07,1V16.44Zm-3.14.6a2.37,2.37,0,0,0-2.09,1.23,2.48,2.48,0,0,0,0,2.47,2.41,2.41,0,0,0,.89.92,2.32,2.32,0,0,0,1.2.33,2.46,2.46,0,0,0,1.22-.32,2.28,2.28,0,0,0,.89-.88,2.52,2.52,0,0,0,.31-1.25,2.43,2.43,0,0,0-.7-1.77A2.31,2.31,0,0,0,49.52,17Z"/><path d="M54.15,16.44H55v.89a2.83,2.83,0,0,1,.76-.79,1.49,1.49,0,0,1,.83-.26,1.43,1.43,0,0,1,.7.21l-.41.66a1.08,1.08,0,0,0-.42-.11,1.14,1.14,0,0,0-.76.32,2,2,0,0,0-.56,1A9.57,9.57,0,0,0,55,20.48v2.06h-.8Z"/><path d="M67.51,19.49l.56.59a12.81,12.81,0,0,1-1,.82q.34.31.88.85t.74.79H67.51l-1.09-1.13a7.08,7.08,0,0,1-1.68,1.08,3.7,3.7,0,0,1-1.36.25,2.14,2.14,0,0,1-1.53-.55,1.81,1.81,0,0,1-.58-1.37,2.3,2.3,0,0,1,.39-1.24A7.23,7.23,0,0,1,63.24,18a7.44,7.44,0,0,1-.87-1.21,1.67,1.67,0,0,1-.19-.74,1.28,1.28,0,0,1,.48-1A2,2,0,0,1,64,14.59a2.13,2.13,0,0,1,.94.21,1.55,1.55,0,0,1,.65.56,1.36,1.36,0,0,1,.22.74,1.69,1.69,0,0,1-.29.88,5.91,5.91,0,0,1-1.15,1.2l1.25,1.31.82.83A13,13,0,0,0,67.51,19.49Zm-3.72-.84a6.68,6.68,0,0,0-1.38,1.26,1.56,1.56,0,0,0-.33.87,1.1,1.1,0,0,0,.4.83,1.4,1.4,0,0,0,1,.36,2.18,2.18,0,0,0,.86-.18,7,7,0,0,0,1.52-1l-1.3-1.34Q64.2,19.13,63.78,18.66Zm.1-1.09a4.12,4.12,0,0,0,.91-.91,1.06,1.06,0,0,0,.21-.57.6.6,0,0,0-.28-.49,1.21,1.21,0,0,0-.74-.21,1.13,1.13,0,0,0-.71.21.63.63,0,0,0-.28.5.83.83,0,0,0,.11.42A6.68,6.68,0,0,0,63.88,17.56Z"/><path d="M73.19,14.29H74v7.46h3.18v.8h-4Z"/><path d="M81.28,16.29a3,3,0,0,1,2.34,1,3.28,3.28,0,0,1,0,4.44,3.23,3.23,0,0,1-4.59,0,3.27,3.27,0,0,1,0-4.44A3,3,0,0,1,81.28,16.29Zm0,.77a2.27,2.27,0,0,0-1.68.72,2.42,2.42,0,0,0-.7,1.75,2.48,2.48,0,0,0,.32,1.23,2.28,2.28,0,0,0,.87.88,2.47,2.47,0,0,0,2.4,0,2.29,2.29,0,0,0,.87-.88,2.48,2.48,0,0,0,.32-1.23A2.42,2.42,0,0,0,83,17.78,2.27,2.27,0,0,0,81.27,17.05Z"/><path d="M85.83,16.44h.79v2.85a6.12,6.12,0,0,0,.11,1.44,1.6,1.6,0,0,0,.64.89,2,2,0,0,0,1.13.33,1.91,1.91,0,0,0,1.12-.32,1.62,1.62,0,0,0,.63-.83,5.86,5.86,0,0,0,.12-1.5V16.44h.8v3a4.74,4.74,0,0,1-.29,1.9,2.25,2.25,0,0,1-.89,1,2.8,2.8,0,0,1-1.48.36A2.83,2.83,0,0,1,87,22.34a2.23,2.23,0,0,1-.89-1,4.92,4.92,0,0,1-.29-1.95Z"/><path d="M92.94,16.44h.79v1.09a3.29,3.29,0,0,1,1-.94A2.57,2.57,0,0,1,96,16.29a2.17,2.17,0,0,1,1.21.35,2.07,2.07,0,0,1,.78.94,4.94,4.94,0,0,1,.25,1.83v3.14h-.79V19.63a7.13,7.13,0,0,0-.09-1.41,1.55,1.55,0,0,0-.52-.91,1.58,1.58,0,0,0-1-.31,1.94,1.94,0,0,0-1.28.47,2.21,2.21,0,0,0-.74,1.17,8.08,8.08,0,0,0-.11,1.66v2.24h-.79Z"/><path d="M105.24,16.44H106v4.86a5.75,5.75,0,0,1-.22,1.88,2.44,2.44,0,0,1-1.07,1.3,3.52,3.52,0,0,1-1.83.45,4.2,4.2,0,0,1-1.41-.22,2.82,2.82,0,0,1-1-.6A3.55,3.55,0,0,1,99.74,23h.85a2.25,2.25,0,0,0,.9.9,2.89,2.89,0,0,0,1.37.29,2.82,2.82,0,0,0,1.36-.3,1.83,1.83,0,0,0,.79-.75,3.35,3.35,0,0,0,.24-1.46v-.31a3,3,0,0,1-1.08.86,3.22,3.22,0,0,1-2.94-.12A3,3,0,0,1,100.07,21a3.08,3.08,0,0,1-.4-1.55,3.18,3.18,0,0,1,3.16-3.16,2.92,2.92,0,0,1,1.28.28,3.53,3.53,0,0,1,1.14.93Zm-2.32.6a2.48,2.48,0,0,0-1.24.32,2.33,2.33,0,0,0-.9.89,2.44,2.44,0,0,0-.33,1.23,2.22,2.22,0,0,0,.67,1.66,2.65,2.65,0,0,0,3.49,0,2.3,2.3,0,0,0,.66-1.71,2.48,2.48,0,0,0-.3-1.23,2.21,2.21,0,0,0-.86-.86A2.39,2.39,0,0,0,102.92,17Z"/><path d="M112.87,20.52l.66.35a3.61,3.61,0,0,1-.75,1,3,3,0,0,1-1,.6,3.34,3.34,0,0,1-1.21.21,2.92,2.92,0,0,1-2.34-1,3.3,3.3,0,0,1-.84-2.21,3.26,3.26,0,0,1,.71-2.07,2.92,2.92,0,0,1,2.42-1.16,3,3,0,0,1,2.49,1.18,3.31,3.31,0,0,1,.67,2.09h-5.49a2.49,2.49,0,0,0,.68,1.74,2.17,2.17,0,0,0,1.62.68,2.6,2.6,0,0,0,.91-.16,2.39,2.39,0,0,0,.75-.43A3.65,3.65,0,0,0,112.87,20.52Zm0-1.64a2.59,2.59,0,0,0-.46-1,2.16,2.16,0,0,0-.79-.61,2.43,2.43,0,0,0-1-.23,2.24,2.24,0,0,0-1.54.58,2.61,2.61,0,0,0-.71,1.26Z"/><path class="cls-1" d="M9.19,14.45H4.78l3.37-3.37h4.41ZM5.89,14H9l2.45-2.45H8.34Z"/><path class="cls-1" d="M12.54,11.56H8.14L4.78,8.2h4.4ZM8.33,11.1h3.1L9,8.66H5.89Z"/><path class="cls-1" d="M19.54,14.45H15.13l-3.37-3.37h4.41ZM15.32,14h3.11L16,11.54H12.87Z"/><path class="cls-1" d="M16.18,11.56h-4.4L15.14,8.2h4.4Zm-3.29-.46H16l2.44-2.44h-3.1Z"/><path class="cls-1" d="M9.19,14.45H4.78l3.37-3.37h4.41ZM5.89,14H9l2.45-2.45H8.34Z"/><path class="cls-1" d="M12.54,11.56H8.14L4.78,8.2h4.4ZM8.33,11.1h3.1L9,8.66H5.89Z"/><path class="cls-1" d="M19.54,14.45H15.13l-3.37-3.37h4.41ZM15.32,14h3.11L16,11.54H12.87Z"/><path class="cls-1" d="M16.18,11.56h-4.4L15.14,8.2h4.4Zm-3.29-.46H16l2.44-2.44h-3.1Z"/><path class="cls-1" d="M11.92,12V7.64l3.37-3.37V8.68Zm.46-4.22v3.11l2.45-2.45V5.38Z"/><path class="cls-1" d="M12.39,12,9,8.68V4.28l3.36,3.35ZM9.49,8.49l2.44,2.44V7.82L9.49,5.38Z"/><path class="cls-1" d="M9,18.36V14l3.36-3.35V15Zm.46-4.21v3.1l2.44-2.44v-3.1Z"/><path class="cls-1" d="M15.28,18.36,11.92,15V10.59L15.28,14ZM12.37,14.8l2.45,2.45V14.15l-2.45-2.45Z"/><path class="cls-1" d="M9,18.36V14l3.36-3.35V15Zm.46-4.21v3.1l2.44-2.44v-3.1Z"/><path class="cls-1" d="M11.92,12V7.64l3.37-3.37V8.68Zm.46-4.22v3.11l2.45-2.45V5.38Z"/><path class="cls-1" d="M12.39,12,9,8.68V4.28l3.36,3.35ZM9.49,8.49l2.44,2.44V7.82L9.49,5.38Z"/><path class="cls-1" d="M9.19,14.45H4.78l3.37-3.37h4.41ZM5.89,14H9l2.45-2.45H8.34Z"/><path class="cls-1" d="M12.54,11.56H8.14L4.78,8.2h4.4ZM8.33,11.1h3.1L9,8.66H5.89Z"/><path class="cls-1" d="M19.54,14.45H15.13l-3.37-3.37h4.41ZM15.32,14h3.11L16,11.54H12.87Z"/><path class="cls-1" d="M16.18,11.56h-4.4L15.14,8.2h4.4Zm-3.29-.46H16l2.44-2.44h-3.1Z"/><path class="cls-1" d="M9.19,14.45H4.78l3.37-3.37h4.41ZM5.89,14H9l2.45-2.45H8.34Z"/><path class="cls-1" d="M12.54,11.56H8.14L4.78,8.2h4.4ZM8.33,11.1h3.1L9,8.66H5.89Z"/><path class="cls-1" d="M19.54,14.45H15.13l-3.37-3.37h4.41ZM15.32,14h3.11L16,11.54H12.87Z"/><path class="cls-1" d="M16.18,11.56h-4.4L15.14,8.2h4.4Zm-3.29-.46H16l2.44-2.44h-3.1Z"/></g></g></svg>