<svg xmlns="http://www.w3.org/2000/svg" xmlns:xlink="http://www.w3.org/1999/xlink" viewBox="0 0 121.39 113"><defs><style>.cls-1,.cls-8{fill:none;}.cls-2{fill:#809191;}.cls-3,.cls-4,.cls-5,.cls-6{fill:#fff;}.cls-4{font-size:6.62px;font-family:AmericanTypewriter, American Typewriter;}.cls-5{font-size:16.85px;font-family:AmericanTypewriter-Bold, American Typewriter;font-weight:700;}.cls-6{font-size:11.79px;font-family:CenturyGothic, Century Gothic;}.cls-7{clip-path:url(#clip-path);}.cls-8{stroke:#fff;stroke-width:0.45px;}</style><clipPath id="clip-path"><rect class="cls-1" x="53.43" y="57.28" width="14.53" height="13.87"/></clipPath></defs><title>Asset 12</title><g id="Layer_2" data-name="Layer 2"><g id="Layer_1-2" data-name="Layer 1"><path class="cls-2" d="M60.47,34.18c.45,0,1.23-.68.45-.68-.45,0-1.23.68-.45.68"/><path d="M121.24,17.06A16.86,16.86,0,0,1,104.39.2c0-.07,0-.13,0-.2H17.75c0,.07,0,.13,0,.2A16.86,16.86,0,0,1,.9,17.06L0,17V95.89l.9,0a16.86,16.86,0,0,1,16.86,16.86c0,.1,0,.19,0,.28h86.64c0-.09,0-.19,0-.28a16.86,16.86,0,0,1,16.86-16.86h.15V17.05h-.15"/><path class="cls-3" d="M39.64,95.15l-.5,0c-.78,0-1.17,0-1.17.13l0,.11,0,.15c0,.08.05.22.1.41s.1.53.13.75a4.5,4.5,0,0,1,0,.6,1.51,1.51,0,0,1-.23.73c0-.36-.08-.7-.13-1s-.11-.61-.18-.89a3.21,3.21,0,0,1-.14-.48,1.69,1.69,0,0,1,0-.31c.1-.55.23-.87.39-1a1.71,1.71,0,0,1,.63-.08h.78l-.65-.84-.83.43v-.12a3,3,0,0,1,.48-.72,1,1,0,0,1,.64-.35.59.59,0,0,1,.48.3l.37.63c.07.16.13.29.18.38a.57.57,0,0,0,.33.22h.26v.95h-.39l-.15-.09,0,.1-.42,0"/><path class="cls-3" d="M43.38,95.16H40.46v-.95h2s.07,0,.07-.11a1.31,1.31,0,0,0-.17-.4,1.5,1.5,0,0,0-.31-.43l.53-.77a2.22,2.22,0,0,1,.44.88,3.39,3.39,0,0,1,.16.84h.23Zm-1.45,1.06.38-.47.58.49-.42.5-.55-.46-.38.46L41,96.26l.42-.5Z"/><path class="cls-3" d="M47.32,94.27a1.65,1.65,0,0,1,0,.3,3.68,3.68,0,0,1-.17.53c-.08.21-.17.32-.26.32a5.61,5.61,0,0,1-.73-.28l-.73-.28a3.37,3.37,0,0,1-1.36.3H43.2v-.95h1.11V94a1.57,1.57,0,0,1,.33-.86,2,2,0,0,1,.63-.52L45,92.29l.22-.35c.13-.24.23-.36.29-.36.25,0,.63.27,1.12.82a2.69,2.69,0,0,1,.74,1.86m-1.58-.63a1.21,1.21,0,0,0-.06-.48.16.16,0,0,0-.13-.1.81.81,0,0,0-.61.29.86.86,0,0,0-.31.59c0,.07.14.12.41.16a1.28,1.28,0,0,0,.54,0,.91.91,0,0,0,.16-.46m1.13.85a1.88,1.88,0,0,0-.31-1c-.23-.3-.4-.45-.5-.45h0a1.51,1.51,0,0,1,0,.17c0,.09,0,.16,0,.2a1.43,1.43,0,0,1-.3.81s.13.07.39.14a5.59,5.59,0,0,1,.72.25.25.25,0,0,0,0-.1"/><polygon class="cls-3" points="49.44 94.52 48.81 95.46 48.81 91.58 49.44 90.73 49.44 94.52"/><path class="cls-3" d="M52.78,96.21a1.62,1.62,0,0,1-1.2.83,1.26,1.26,0,0,1-.88-.44,2.41,2.41,0,0,1-.59-.9l.16.1a4.41,4.41,0,0,0,.46.21,1.54,1.54,0,0,0,1.64-.31c.29-.26.43-.45.43-.56s-.25-.57-.73-1l.41-.86.33.33a1.33,1.33,0,0,1,.24.35,1.12,1.12,0,0,1,.1.26h.26v.95h-.21a2.55,2.55,0,0,1-.43,1"/><path class="cls-3" d="M56,94.45c0,.47-.07.71-.19.71H53.24v-.95h1.94s.07,0,.07-.11a1.59,1.59,0,0,0-.21-.45c-.14-.24-.22-.37-.26-.37l.51-.79a2.06,2.06,0,0,1,.47.89A4.26,4.26,0,0,1,56,94.45m-1.65,1.3.87.35-.32.71L54,96.46Z"/><path class="cls-3" d="M58.1,95.81a.62.62,0,0,0-.31,0h-.12a.25.25,0,0,0-.13.09.23.23,0,0,0-.08.14v0c0,.07.17.1.37.1l.17,0,.38-.09-.06.29-.36.09a2.61,2.61,0,0,0-.43.21l-.2.13a0,0,0,0,1,0,0,.52.52,0,0,1,.11-.21l.11-.14-.15,0c-.09,0-.14-.06-.14-.09a.86.86,0,0,1,.7-.77l.17,0,.15,0ZM58,94.52l-.63.94V91.58l.63-.85Z"/><path class="cls-3" d="M69.15,93.51q0,.65-.12,1.94H66.67q-.06-.89-.06-1.5A1.28,1.28,0,0,1,67,92.87q-.56,0-.56-.53a1.12,1.12,0,0,1,.05-.36c.05-.15.13-.22.24-.22s0,0,.05.15.12.15.28.15H68.4a.63.63,0,0,1,.49.17.9.9,0,0,1,.2.48,4.49,4.49,0,0,1,.06.8m-.33.69v-.85a.61.61,0,0,0-.07-.34.38.38,0,0,0-.33-.13H67.28l-.13.13a1.22,1.22,0,0,0-.21.75c0,.45.05.72.16.81a.42.42,0,0,0,.26.06h1a.5.5,0,0,0,.34-.08.53.53,0,0,0,.08-.35"/><path class="cls-3" d="M73,92.64a.74.74,0,0,1-.15.35.72.72,0,0,0-.15.36,2.64,2.64,0,0,0,0,.32l.14,1a2.1,2.1,0,0,1,0,.27.6.6,0,0,1-.18.4.61.61,0,0,1-.37.22c0-.27,0-.52,0-.73s0-.33,0-.58,0-.45,0-.58a1,1,0,0,1,.09-.4l.1-.19a.4.4,0,0,0,0-.17H70.94q-.62,0-.62-.53a1.14,1.14,0,0,1,.05-.36c.05-.15.13-.22.24-.22s0,0,.05.15.12.15.28.15h1.64q.38,0,.38.46ZM70.88,94c0,.11,0,.28,0,.5s0,.39,0,.51a.5.5,0,0,1-.17.34.61.61,0,0,1-.34.2V94.17a.52.52,0,0,1,.18-.38.53.53,0,0,1,.38-.17h0a1.35,1.35,0,0,0-.09.36"/><path class="cls-3" d="M76.45,95l-.53.53c0-.51.06-.84.06-1v-.44A4,4,0,0,0,75.91,93c0-.07-.16-.1-.33-.1h-1a.47.47,0,0,1-.54-.53q0-.58.28-.58s0,0,0,.07v.08c0,.1.13.15.29.15h1.28a.33.33,0,0,1,.29.16.65.65,0,0,1,.11.36c0,.08,0,.21,0,.38s0,.3,0,.39a12.54,12.54,0,0,0,.1,1.65"/><path class="cls-3" d="M80.08,94.63l-.17.82H77.45l.18-.82h1.47c.29,0,.44-.25.44-.74v-.24q0-.54-.17-.66a1.47,1.47,0,0,0-.77-.13h-.46c-.42,0-.63-.18-.63-.53a1.12,1.12,0,0,1,.05-.36c.05-.15.13-.22.24-.22s0,0,.05.15.12.15.28.15H79a.84.84,0,0,1,.74.28,1.57,1.57,0,0,1,.15.81,3.94,3.94,0,0,1-.21,1.48Z"/><path class="cls-3" d="M83.84,95a.58.58,0,0,1-.26.48l-.07,0L83.17,95q-.39-.5-1.16-1.42h0a.14.14,0,0,0-.11,0,.53.53,0,0,0-.17.38.48.48,0,0,0,.06.2l.23.39a1.22,1.22,0,0,1,.18.4,1,1,0,0,1-.05.26c0,.13-.09.2-.14.2h-.76l-.07-.17c.18-.06.27-.11.27-.16l0-.05c0-.16-.09-.34-.15-.56a.82.82,0,0,1,0-.2,1.32,1.32,0,0,1,.59-.93l-.49-.58a.6.6,0,0,1-.17-.38.61.61,0,0,1,.18-.38c.08-.11.13-.16.17-.16a1.75,1.75,0,0,1,.2.27,3.58,3.58,0,0,0,.47.63l.64.77a3.55,3.55,0,0,1,.23-.38l.23-.34a.94.94,0,0,1-.36-.09.42.42,0,0,1-.17-.39A.94.94,0,0,1,82.8,92c0-.14.11-.2.2-.2h0s0,0,.07.12a.22.22,0,0,0,.2.14.81.81,0,0,1,.24,0c.22,0,.32.17.32.45a2.82,2.82,0,0,1,0,.34h-.25c-.15,0-.27.11-.36.32a1.72,1.72,0,0,0-.13.55h0a.55.55,0,0,0,.11.18l.5.63a.7.7,0,0,1,.16.4"/><path class="cls-3" d="M62.8,93.46a.67.67,0,1,1-.66-.66.67.67,0,0,1,.66.66"/><text class="cls-4" transform="translate(37.78 84.33)">TEL-AVIV</text><text class="cls-5" transform="translate(21.2 34.24)">Abraham</text><text class="cls-6" transform="translate(31.38 49.67)">HOSTELS</text><g class="cls-7"><polygon class="cls-8" points="56.84 64.21 53.98 67.07 57.68 67.07 60.54 64.21 56.84 64.21"/><polygon class="cls-8" points="53.98 61.37 56.83 64.22 60.52 64.22 57.67 61.37 53.98 61.37"/><polygon class="cls-8" points="64.55 64.21 67.42 67.07 63.72 67.07 60.85 64.21 64.55 64.21"/><polygon class="cls-8" points="67.42 61.37 64.56 64.22 60.87 64.22 63.72 61.37 67.42 61.37"/><polygon class="cls-8" points="56.84 64.21 53.98 67.07 57.68 67.07 60.54 64.21 56.84 64.21"/><polygon class="cls-8" points="53.98 61.37 56.83 64.22 60.52 64.22 57.67 61.37 53.98 61.37"/><polygon class="cls-8" points="64.55 64.21 67.42 67.07 63.72 67.07 60.85 64.21 64.55 64.21"/><polygon class="cls-8" points="67.42 61.37 64.56 64.22 60.87 64.22 63.72 61.37 67.42 61.37"/><polygon class="cls-8" points="60.68 60.69 63.55 57.82 63.55 61.52 60.68 64.39 60.68 60.69"/><polygon class="cls-8" points="57.85 57.82 60.7 60.68 60.7 64.37 57.85 61.52 57.85 57.82"/><polygon class="cls-8" points="57.85 70.6 60.7 67.75 60.7 64.06 57.85 66.91 57.85 70.6"/><polygon class="cls-8" points="60.68 67.74 63.55 70.6 63.55 66.9 60.68 64.04 60.68 67.74"/><polygon class="cls-8" points="57.85 70.6 60.7 67.75 60.7 64.06 57.85 66.91 57.85 70.6"/><polygon class="cls-8" points="60.68 60.69 63.55 57.82 63.55 61.52 60.68 64.39 60.68 60.69"/><polygon class="cls-8" points="57.85 57.82 60.7 60.68 60.7 64.37 57.85 61.52 57.85 57.82"/><polygon class="cls-8" points="56.84 64.21 53.98 67.07 57.68 67.07 60.54 64.21 56.84 64.21"/><polygon class="cls-8" points="53.98 61.37 56.83 64.22 60.52 64.22 57.67 61.37 53.98 61.37"/><polygon class="cls-8" points="64.55 64.21 67.42 67.07 63.72 67.07 60.85 64.21 64.55 64.21"/><polygon class="cls-8" points="67.42 61.37 64.56 64.22 60.87 64.22 63.72 61.37 67.42 61.37"/><polygon class="cls-8" points="56.84 64.21 53.98 67.07 57.68 67.07 60.54 64.21 56.84 64.21"/><polygon class="cls-8" points="53.98 61.37 56.83 64.22 60.52 64.22 57.67 61.37 53.98 61.37"/><polygon class="cls-8" points="64.55 64.21 67.42 67.07 63.72 67.07 60.85 64.21 64.55 64.21"/><polygon class="cls-8" points="67.42 61.37 64.56 64.22 60.87 64.22 63.72 61.37 67.42 61.37"/></g></g></g></svg>